<svg width="18" height="15" viewBox="0 0 18 15" fill="none" xmlns="http://www.w3.org/2000/svg">
<path d="M11.1416 13.831L16.9074 8.05363C17.2344 7.72661 17.2514 7.28456 16.9067 6.93987L11.1272 1.16044C10.8055 0.838723 10.3405 0.867115 10.0651 1.1425C9.78975 1.41788 9.80155 1.90014 10.0716 2.17015L12.0708 4.16939L14.9661 6.88113L12.9624 6.74773L1.57215 6.75152C1.36549 6.75136 1.17605 6.8259 1.04984 6.95211C0.774457 7.2275 0.763338 7.73268 1.05058 8.01993C1.18272 8.15206 1.35498 8.23258 1.56741 8.22696L12.9634 8.24039L14.9842 8.11545L12.2015 10.6913L10.0788 12.8141C9.8091 13.0837 9.79224 13.5717 10.0737 13.8532C10.3495 14.129 10.8317 14.1408 11.1416 13.831Z" fill="white"/>
</svg>
