<svg width="12" height="12" viewBox="0 0 12 12" fill="none" xmlns="http://www.w3.org/2000/svg">
<path d="M12 8.97272L11.9919 0.810461C11.9919 0.347982 11.6913 0.0234375 11.2038 0.0234375H3.03046C2.57549 0.0234375 2.26676 0.372322 2.26676 0.761774C2.26676 1.15123 2.61611 1.48389 2.99797 1.48389H5.82532L9.79012 1.35407L8.27894 2.67659L0.227488 10.7334C0.0812461 10.8794 0 11.0661 0 11.2446C0 11.634 0.349357 11.9991 0.755583 11.9991C0.942454 11.9991 1.12119 11.9342 1.26743 11.78L9.3351 3.73135L10.6757 2.21411L10.5294 6.00317V9.00519C10.5294 9.38654 10.8626 9.74352 11.2607 9.74352C11.6506 9.74352 12 9.41091 12 8.97272Z" fill="#1F3233"/>
</svg>
